<svg width="126" height="116" viewBox="0 0 126 116" fill="none" xmlns="http://www.w3.org/2000/svg">
<path d="M117.951 109H8.04727C3.60188 109 0 105.383 0 100.924V39.076C0 34.6168 3.60188 31 8.04727 31H117.953C122.396 31 126 34.6147 126 39.076V100.924C125.998 105.383 122.394 109 117.951 109Z" fill="#4D4D4D"/>
<path d="M126 92V100.69C126 105.279 122.398 109 117.955 109H8.0474C3.60194 109 0 105.279 0 100.69V92H126Z" fill="#666666"/>
<path d="M119.634 90H5.36842C4.61251 90 4 89.3846 4 88.6251V38.3749C4 37.6154 4.61251 37 5.36842 37H119.632C120.387 37 121 37.6154 121 38.3749V88.6231C121.002 89.3825 120.39 90 119.634 90Z" fill="#CCCCCC"/>
<path d="M50.4656 109C50.4656 109 51.7984 112.066 47 115.922C47 115.922 79.2657 116.097 78.9983 115.922C78.731 115.747 74.9981 113.47 75.1756 109H50.4656Z" fill="#4D4D4D"/>
<path opacity="0.16" d="M115 47.2923V78.5266C115 78.5266 66.7349 65.9518 15.0181 77.7773C13.3495 78.1581 11.6747 78.5657 10 79V47L115 47.2923Z" fill="black"/>
<path d="M113.939 73H11.0613C10.4744 73 10 72.5158 10 71.9215V1.07851C10 0.482109 10.4765 0 11.0613 0H113.939C114.526 0 115 0.484187 115 1.07851V71.9215C115.002 72.5158 114.526 73 113.939 73Z" fill="#666666"/>
<path d="M115 9H10V0.634353C10 0.283019 10.2985 0 10.6646 0H113.949C114.53 0 114.998 0.448926 114.998 1.0013V9H115Z" fill="#E85353"/>
<path d="M44 4H28V5H44V4Z" fill="#F2F2F2"/>
<path d="M66 4H50V5H66V4Z" fill="#F2F2F2"/>
<path d="M88 4H72V5H88V4Z" fill="#F2F2F2"/>
<path d="M106.261 37H67.7393C66.2261 37 65 35.7476 65 34.2019V20.7981C65 19.2524 66.2261 18 67.7393 18H106.261C107.774 18 109 19.2524 109 20.7981V34.2019C109.002 35.7455 107.774 37 106.261 37Z" fill="#E6E6E6"/>
<path d="M107.538 58H75.4624C74.6538 58 74 57.5515 74 57C74 56.4471 74.6558 56 75.4624 56H107.538C108.346 56 109 56.4485 109 57C109.002 57.5529 108.346 58 107.538 58Z" fill="#E6E6E6"/>
<path d="M107.538 52H75.4624C74.6538 52 74 51.1031 74 50C74 48.8941 74.6558 48 75.4624 48H107.538C108.346 48 109 48.8969 109 50C109.002 51.1031 108.346 52 107.538 52Z" fill="#E6E6E6"/>
<path d="M107.406 45H69.5938C68.7148 45 68 44.3292 68 43.5C68 42.6728 68.7127 42 69.5938 42H107.406C108.285 42 109 42.6708 109 43.5C109 44.3292 108.285 45 107.406 45Z" fill="#E85353"/>
<path d="M35.5 37C40.7467 37 45 32.7467 45 27.5C45 22.2533 40.7467 18 35.5 18C30.2533 18 26 22.2533 26 27.5C26 32.7467 30.2533 37 35.5 37Z" fill="#E6E6E6"/>
<path d="M21 58C21 45.8493 27.4928 36 35.5 36C43.5072 36 50 45.8493 50 58H21Z" fill="#E6E6E6"/>
</svg>
