<svg width="118" height="116" viewBox="0 0 118 116" fill="none" xmlns="http://www.w3.org/2000/svg">
<path d="M47.1362 70.234L47.2914 70.6402C47.3397 70.7713 47.4127 70.9469 47.4752 71.1317L47.7008 71.7811C47.7891 72.0295 47.8609 72.2805 47.955 72.5712C48.0447 72.8579 48.1509 73.1788 48.2341 73.4944L48.5246 74.533C48.6203 74.8951 48.7007 75.2585 48.7976 75.6544C49.2127 77.3641 49.5076 79.1007 49.6801 80.8515C49.7791 81.7833 49.8212 82.712 49.8418 83.6671C49.8432 84.603 49.8207 85.5629 49.7331 86.5005C49.6471 87.433 49.5055 88.3594 49.309 89.275C49.1119 90.1735 48.8517 91.0571 48.5304 91.919C47.8897 93.6279 46.9912 95.207 45.824 96.6028C45.2466 97.3071 44.5718 97.9352 43.9033 98.5856C43.2252 99.2265 42.5314 99.8676 41.8071 100.489C40.3425 101.76 38.8123 102.953 37.2228 104.064C35.6176 105.193 33.9293 106.238 32.1974 107.198C31.3299 107.674 30.4507 108.128 29.5608 108.561C28.6737 108.986 27.7764 109.391 26.8695 109.773C25.0608 110.527 23.2384 111.182 21.4315 111.725C19.6872 112.252 17.9179 112.692 16.1301 113.045C12.7111 113.727 9.573 114.006 7.24052 114.066L6.40656 114.08L5.65765 114.08L4.44517 114.047L3.66791 114.002L3.39326 113.978L3.36955 113.704L3.32401 112.926L3.29171 111.714L3.29102 110.965L3.30542 110.131C3.36514 107.798 3.64444 104.66 4.32643 101.241C4.67911 99.4536 5.11959 97.6843 5.64627 95.9399C6.18884 94.133 6.84387 92.3103 7.59836 90.5019C7.98053 89.5951 8.38473 88.6977 8.81061 87.8106C9.24281 86.9239 9.69592 86.0421 10.1734 85.174C11.1329 83.4421 12.1785 81.7538 13.3073 80.1486C14.418 78.559 15.6113 77.0288 16.8823 75.5643C17.5036 74.84 18.1445 74.1459 18.7856 73.4681C19.436 72.7996 20.064 72.1248 20.7683 71.5474C22.1644 70.3802 23.7433 69.4816 25.4521 68.841C26.3141 68.5198 27.1977 68.2596 28.0962 68.0624C29.0117 67.8659 29.9382 67.7243 30.8706 67.6383C31.8082 67.5507 32.7684 67.5281 33.7041 67.5295C34.6591 67.55 35.5876 67.5923 36.5197 67.6913C38.2705 67.8637 40.0071 68.1586 41.7167 68.5738C42.1124 68.6705 42.4759 68.7511 42.8381 68.8468L43.8768 69.1373C44.1923 69.2207 44.5135 69.3267 44.8 69.4163C45.0909 69.5102 45.3416 69.5823 45.59 69.6706L46.2395 69.8962C46.4242 69.9587 46.5999 70.0317 46.7309 70.08C46.9979 70.1811 47.1362 70.234 47.1362 70.234Z" fill="#FFB636"/>
<path d="M17.3949 40.4918L0.54516 57.3415C-0.619453 58.5061 0.205442 60.4975 1.85244 60.4975H16.0139C16.5042 60.4975 16.9745 60.6922 17.3212 61.0389L26.5164 70.2341L41.4507 39.9504H18.7022C18.4594 39.9503 18.2189 39.9981 17.9946 40.091C17.7703 40.1839 17.5665 40.3201 17.3949 40.4918ZM49.7635 89.4837L58.9587 98.6788C59.3053 99.0255 59.5001 99.4958 59.5001 99.9861V114.148C59.5001 115.795 61.4914 116.619 62.6561 115.455L79.5058 98.6051C79.8524 98.2584 80.0472 97.7882 80.0472 97.2979V74.5493L49.7635 89.4837Z" fill="#E85353"/>
<path d="M117.03 2.41255L117.048 2.56057C117.059 2.65793 117.08 2.80803 117.096 2.99323C117.126 3.36339 117.195 3.93686 117.228 4.62745C117.333 6.04813 117.403 8.0481 117.354 10.4542C117.306 12.8618 117.136 15.6741 116.769 18.7269C116.686 19.4998 116.569 20.2649 116.456 21.0601C116.35 21.8634 116.201 22.6481 116.064 23.4704C115.782 25.1079 115.432 26.7742 115.027 28.4739C114.183 32.0016 113.111 35.4709 111.819 38.86C110.485 42.3503 108.885 45.8367 107.01 49.2234C105.132 52.6074 102.995 55.9081 100.607 59.0455C98.2224 62.1859 95.5895 65.166 92.7646 67.9539C89.9398 70.7421 86.9267 73.3418 83.761 75.7012C82.9693 76.2907 82.173 76.8705 81.3588 77.4251C80.5534 77.9888 79.7306 78.5279 78.9106 79.0619C77.2626 80.122 75.5799 81.1139 73.8797 82.0448C70.5325 83.8759 67.0647 85.4772 63.5001 86.8375C60.1131 88.127 56.6483 89.2025 53.1264 90.0577C51.4304 90.4664 49.7729 90.8261 48.1383 91.1098L46.9348 91.3266C46.5361 91.3949 46.1316 91.4512 45.7389 91.5127L44.5736 91.6905L43.4178 91.8376C40.3815 92.2217 37.5877 92.4099 35.1979 92.4756C32.8105 92.544 30.822 92.4849 29.4176 92.396C28.7339 92.3702 28.1642 92.3046 27.7984 92.2788C27.6151 92.2654 27.4661 92.2451 27.37 92.2354L27.2233 92.2191C26.1122 92.0953 25.2694 91.2132 25.1509 90.1467L25.1346 90.0003C25.1248 89.9041 25.1046 89.7551 25.0911 89.5718C25.0654 89.206 24.9998 88.6365 24.974 87.9527C24.8853 86.5482 24.8263 84.5599 24.8943 82.1723C24.9601 79.7825 25.1483 76.9887 25.5324 73.9524L25.6795 72.7967L25.8573 71.6313C25.9188 71.2386 25.9753 70.8343 26.0434 70.4353L26.2602 69.2319C26.5439 67.5972 26.9036 65.9398 27.3123 64.2438C28.1672 60.7218 29.2427 57.257 30.5324 53.87C31.893 50.3056 33.4942 46.8378 35.3252 43.4905C36.2563 41.7905 37.2482 40.1075 38.3081 38.4596C38.842 37.6396 39.3811 36.8168 39.9448 36.0114C40.4995 35.1969 41.0792 34.4009 41.6688 33.6092C44.0282 30.4435 46.6279 27.4301 49.416 24.6055C52.2039 21.7806 55.184 19.1477 58.3244 16.763C61.4618 14.3752 64.7626 12.2383 68.1465 10.3601C71.5332 8.48471 75.0199 6.88465 78.51 5.55134C81.8991 4.25885 85.3683 3.18734 88.896 2.34354C90.5958 1.93852 92.262 1.58765 93.8995 1.30649C94.7219 1.16963 95.5066 1.01975 96.3098 0.914491C97.105 0.801097 97.8699 0.68352 98.643 0.601495C101.696 0.233894 104.508 0.0642669 106.916 0.0161673C109.322 -0.0333264 111.322 0.0370801 112.742 0.142342C113.433 0.175105 114.007 0.24435 114.377 0.274557C114.562 0.289893 114.712 0.311039 114.809 0.322192L114.957 0.340084C116.065 0.473694 116.902 1.3518 117.03 2.41255Z" fill="#666666"/>
<path d="M56.0247 61.3455L56.1601 61.7119C56.2356 61.9399 56.3374 62.2677 56.4076 62.633C56.574 63.3894 56.629 64.31 56.3284 65.1107C56.1801 65.5132 55.9059 65.8487 55.6478 66.2544L54.7896 67.5452L52.7297 70.6384C51.9117 71.8505 51.0866 73.0578 50.2546 74.2603C49.3273 75.5982 48.3889 76.9283 47.4395 78.2505L45.9268 80.3323L44.3551 82.4433C43.2887 83.8551 42.1975 85.2816 41.088 86.6895C39.9893 88.0924 38.8766 89.4843 37.7503 90.8651C36.6394 92.2326 35.5501 93.5819 34.4779 94.8699L32.905 96.7735C32.3841 97.3883 31.9103 98.0257 31.3601 98.5573C30.8133 99.0923 30.1824 99.5138 29.4574 99.8065C28.7387 100.106 27.952 100.302 27.1912 100.486C25.7571 100.826 24.3074 101.096 22.8471 101.295C22.1723 101.387 21.5271 101.46 20.9176 101.514C20.3113 101.572 19.7248 101.595 19.2109 101.632C18.6929 101.665 18.1984 101.662 17.7853 101.676C17.3659 101.685 16.9883 101.671 16.6927 101.671C16.3909 101.664 16.1497 101.649 15.9919 101.643L15.7442 101.627L15.7275 101.379C15.7221 101.221 15.707 100.98 15.7003 100.678C15.6998 100.383 15.6861 100.005 15.6945 99.5856C15.7089 99.1722 15.7063 98.6779 15.7391 98.16C15.7758 97.646 15.799 97.0595 15.8567 96.4533C15.911 95.844 15.9835 95.1985 16.076 94.5237C16.2752 93.0634 16.5452 91.6137 16.8851 90.1797C17.0687 89.4191 17.2653 88.6323 17.5643 87.9134C17.8571 87.1882 18.2786 86.5575 18.8135 86.0108C19.3452 85.4608 19.9825 84.987 20.5976 84.466L22.5011 82.8932C23.7891 81.821 25.1385 80.7315 26.5059 79.6208C27.8711 78.5077 29.2695 77.3884 30.6815 76.2831C32.0894 75.1733 33.5159 74.0823 34.9278 73.016L37.0388 71.4443L39.1206 69.9316C40.4429 68.9823 41.773 68.0439 43.1107 67.1165C44.3888 66.231 45.6061 65.4028 46.7326 64.6413L49.8259 62.5814L51.1166 61.7233C51.5221 61.4651 51.8577 61.191 52.2603 61.0427C53.0611 60.742 53.9817 60.7971 54.7381 60.9635C55.1033 61.0336 55.4312 61.1354 55.6591 61.2109L56.0247 61.3455Z" fill="#E85353"/>
<path d="M83.6777 46.2796C83.6777 53.2313 78.0422 58.8668 71.0905 58.8668C64.1388 58.8668 58.5033 53.2313 58.5033 46.2796C58.5033 39.3279 64.1388 33.6924 71.0905 33.6924C78.0422 33.6924 83.6777 39.3279 83.6777 46.2796ZM90.0048 19.3529C85.5796 19.3529 81.9924 22.9402 81.9924 27.3653C81.9924 31.7905 85.5796 35.3777 90.0048 35.3777C94.4299 35.3777 98.0172 31.7905 98.0172 27.3653C98.0172 22.9402 94.4299 19.3529 90.0048 19.3529Z" fill="#212121"/>
</svg>
