<svg width="90" height="86" viewBox="0 0 90 86" fill="none" xmlns="http://www.w3.org/2000/svg">
<path d="M84.4866 42.9554H79.6532V38.2247C79.6532 36.97 79.144 35.7667 78.2376 34.8795C77.3312 33.9923 76.1018 33.4939 74.8199 33.4939C73.538 33.4939 72.3087 33.9923 71.4022 34.8795C70.4958 35.7667 69.9866 36.97 69.9866 38.2247V42.9554H65.1533C63.8714 42.9554 62.642 43.4538 61.7356 44.341C60.8292 45.2282 60.3199 46.4315 60.3199 47.6862C60.3199 48.9408 60.8292 50.1441 61.7356 51.0313C62.642 51.9185 63.8714 52.4169 65.1533 52.4169H69.9866V57.1477C69.9866 58.4023 70.4958 59.6056 71.4022 60.4928C72.3087 61.38 73.538 61.8784 74.8199 61.8784C76.1018 61.8784 77.3312 61.38 78.2376 60.4928C79.144 59.6056 79.6532 58.4023 79.6532 57.1477V52.4169H84.4866C85.7684 52.4169 86.9978 51.9185 87.9042 51.0313C88.8107 50.1441 89.3199 48.9408 89.3199 47.6862C89.3199 46.4315 88.8107 45.2282 87.9042 44.341C86.9978 43.4538 85.7684 42.9554 84.4866 42.9554Z" fill="#E85353"/>
<path d="M33.8333 37.846C37.6571 37.846 41.395 36.7362 44.5743 34.6569C47.7536 32.5777 50.2316 29.6223 51.6949 26.1646C53.1582 22.7068 53.5411 18.902 52.7951 15.2313C52.0491 11.5606 50.2078 8.18886 47.504 5.54243C44.8002 2.896 41.3553 1.09376 37.605 0.363609C33.8547 -0.36654 29.9675 0.00819898 26.4348 1.44044C22.9021 2.87268 19.8826 5.29809 17.7582 8.40996C15.6339 11.5218 14.5 15.1804 14.5 18.923C14.5 23.9417 16.5369 28.7549 20.1626 32.3036C23.7883 35.8524 28.7058 37.846 33.8333 37.846ZM33.8333 9.46152C35.7452 9.46152 37.6141 10.0164 39.2038 11.0561C40.7935 12.0957 42.0325 13.5734 42.7641 15.3023C43.4958 17.0311 43.6872 18.9335 43.3142 20.7689C42.9412 22.6042 42.0205 24.2901 40.6686 25.6133C39.3167 26.9365 37.5943 27.8377 35.7192 28.2027C33.844 28.5678 31.9004 28.3804 30.134 27.6643C28.3677 26.9482 26.858 25.7355 25.7958 24.1796C24.7336 22.6236 24.1666 20.7943 24.1666 18.923C24.1666 16.4137 25.1851 14.0071 26.9979 12.2327C28.8108 10.4584 31.2695 9.46152 33.8333 9.46152Z" fill="#E85353"/>
<path d="M33.8333 47.3076C24.8601 47.3076 16.2545 50.7965 9.90953 57.0069C3.56457 63.2172 0 71.6402 0 80.4229C0 81.6776 0.509223 82.8809 1.41565 83.768C2.32207 84.6552 3.55145 85.1536 4.83332 85.1536C6.1152 85.1536 7.34457 84.6552 8.251 83.768C9.15742 82.8809 9.66665 81.6776 9.66665 80.4229C9.66665 74.1495 12.2128 68.1331 16.7449 63.6972C21.277 59.2612 27.4239 56.7691 33.8333 56.7691C40.2426 56.7691 46.3895 59.2612 50.9216 63.6972C55.4538 68.1331 57.9999 74.1495 57.9999 80.4229C57.9999 81.6776 58.5091 82.8809 59.4155 83.768C60.322 84.6552 61.5513 85.1536 62.8332 85.1536C64.1151 85.1536 65.3445 84.6552 66.2509 83.768C67.1573 82.8809 67.6665 81.6776 67.6665 80.4229C67.6665 71.6402 64.102 63.2172 57.757 57.0069C51.412 50.7965 42.8064 47.3076 33.8333 47.3076Z" fill="#E85353"/>
</svg>
