<svg width="171" height="35" viewBox="0 0 171 35" fill="none" xmlns="http://www.w3.org/2000/svg">
<path d="M12.0069 7.30048C12.7179 7.30048 13.4404 7.37323 14.1743 7.51874C14.9082 7.65305 15.5619 7.83777 16.1353 8.07283C17.1445 9.79664 18.0619 11.554 18.8876 13.345C19.7248 15.1248 20.4702 16.9607 21.1238 18.8522C21.5711 18.9081 22.0241 18.9697 22.4828 19.0371C22.9415 19.093 23.406 19.1546 23.8761 19.2216V23.52L22.3968 23.1171C22.8096 24.7848 23.1594 26.4864 23.4461 28.2212C23.7328 29.9563 23.945 31.7249 24.0826 33.5271H19.9885C19.8165 31.6017 19.5298 29.699 19.1284 27.8183C18.7271 25.9379 18.2684 24.1358 17.7523 22.4118C16.6399 22.3222 15.5791 22.2551 14.57 22.2104C13.5723 22.1657 12.7179 22.1431 12.0069 22.1431C11.055 22.1431 10.109 22.16 9.16859 22.1935C8.2282 22.227 7.28212 22.2886 6.33028 22.3783C5.81423 24.102 5.34979 25.9041 4.93693 27.7848C4.53555 29.6652 4.25459 31.5794 4.09404 33.5271H0C0.126148 31.7249 0.326837 29.962 0.602067 28.2381C0.888763 26.5142 1.23852 24.8183 1.65138 23.1506L0.309634 23.52V19.2216L2.95871 18.8522C3.60091 16.9607 4.33486 15.1248 5.16055 13.345C5.99771 11.554 6.92659 9.79664 7.94725 8.07283C8.52063 7.83777 9.16859 7.65305 9.89106 7.51874C10.6135 7.37323 11.3188 7.30048 12.0069 7.30048ZM12.0069 18.3485C12.695 18.3485 13.406 18.3597 14.1399 18.382C14.8739 18.3935 15.6307 18.427 16.4105 18.4829C15.8257 16.9269 15.2466 15.5781 14.6732 14.4364C14.1112 13.2835 13.6238 12.3936 13.211 11.7667C13.0046 11.6772 12.8096 11.6156 12.6261 11.582C12.4427 11.5484 12.2362 11.5317 12.0069 11.5317C11.6399 11.5317 11.2615 11.61 10.8715 11.7667C10.4587 12.3936 9.9656 13.2835 9.39221 14.4364C8.81882 15.5781 8.24541 16.9269 7.67202 18.4829C8.42889 18.427 9.16859 18.3935 9.89106 18.382C10.625 18.3597 11.3303 18.3485 12.0069 18.3485Z" fill="#E85353"/>
<path fill-rule="evenodd" clip-rule="evenodd" d="M28.1287 29.8018V10.9473H32.4977V29.8018H32.515V33.527H28.1113V29.8018H28.1287ZM32.343 4.71809C31.8498 4.43827 31.1789 4.29834 30.3305 4.29834C29.5161 4.29834 28.8567 4.43827 28.3521 4.71809C27.8592 4.98673 27.6125 5.41771 27.6125 6.01097V6.85047C27.6125 7.38776 27.8592 7.77395 28.3521 8.00901C28.8567 8.24408 29.5161 8.36162 30.3305 8.36162C31.1789 8.36162 31.8498 8.24408 32.343 8.00901C32.8362 7.77395 33.0828 7.38776 33.0828 6.85047V6.01097C33.0828 5.41771 32.8362 4.98673 32.343 4.71809Z" fill="#E85353"/>
<path fill-rule="evenodd" clip-rule="evenodd" d="M52.491 10.5791C52.5711 9.31422 52.6113 8.09971 52.6113 6.93558C51.6134 6.95796 50.7362 6.98595 49.9794 7.01954C49.234 7.04192 48.5573 7.08671 47.9496 7.15385C47.3533 7.22101 46.8029 7.31056 46.2982 7.42249C45.805 7.52325 45.3235 7.66876 44.8532 7.85906C44.3944 8.04933 43.9185 8.28443 43.4256 8.56425C42.9323 8.83289 42.3933 9.16312 41.8085 9.5549C41.4988 9.07357 41.1433 8.67059 40.742 8.34598C40.3521 8.01016 39.9792 7.73593 39.6237 7.52325C39.211 7.27698 38.7923 7.08109 38.3681 6.93558L36.5447 10.2265C36.8086 10.3496 37.0435 10.5064 37.2501 10.6966C37.4336 10.8533 37.6054 11.0548 37.766 11.3011C37.938 11.5474 38.0469 11.8496 38.093 12.2078V26.0766H38.0928V33.527H42.4964V26.0766H42.4967V12.3085C42.7145 12.1742 42.9611 11.9951 43.2362 11.7712C43.5116 11.5474 43.8671 11.3291 44.3028 11.1164C44.7384 10.8925 45.2833 10.7022 45.9368 10.5455C46.6021 10.3776 47.4394 10.2825 48.4484 10.2601C48.4484 10.831 48.414 11.3738 48.3453 11.8888C48.2878 12.3925 48.2247 12.8346 48.156 13.2152C48.0641 13.6629 47.9666 14.0771 47.8636 14.4577H52.0265C52.2558 13.1256 52.4105 11.8328 52.491 10.5791Z" fill="#E85353"/>
<path fill-rule="evenodd" clip-rule="evenodd" d="M56.3123 22.9245V6.64899H60.6813V22.9245H60.6983V33.5271H56.2947V22.9245H56.3123ZM60.5266 0.419748C60.0334 0.139926 59.3625 0 58.5141 0C57.6997 0 57.0403 0.139926 56.5357 0.419748C56.0428 0.688394 55.7961 1.11937 55.7961 1.71263V2.55213C55.7961 3.08942 56.0428 3.47561 56.5357 3.71067C57.0403 3.94574 57.6997 4.06328 58.5141 4.06328C59.3625 4.06328 60.0334 3.94574 60.5266 3.71067C61.0198 3.47561 61.2664 3.08942 61.2664 2.55213V1.71263C61.2664 1.11937 61.0198 0.688394 60.5266 0.419748Z" fill="#E85353"/>
<path d="M83.8735 34.096C82.1241 34.096 80.4708 33.7973 78.9135 33.2C77.3775 32.5813 75.8948 31.6747 74.4655 30.48L76.5455 27.664C77.9961 28.8373 79.2868 29.68 80.4175 30.192C81.5695 30.6827 82.7961 30.928 84.0975 30.928C85.0788 30.928 85.9428 30.7787 86.6895 30.48C87.4575 30.16 88.0441 29.7333 88.4495 29.2C88.8761 28.6667 89.0895 28.048 89.0895 27.344C89.0895 26.4267 88.7801 25.7333 88.1615 25.264C87.5641 24.7733 86.5188 24.4 85.0255 24.144L80.8975 23.44C78.9561 23.0987 77.5055 22.448 76.5455 21.488C75.6068 20.5067 75.1375 19.2587 75.1375 17.744C75.1375 16.4 75.4788 15.2267 76.1615 14.224C76.8441 13.2 77.7935 12.4107 79.0095 11.856C80.2468 11.28 81.7081 10.992 83.3935 10.992C85.0788 10.992 86.6788 11.2373 88.1935 11.728C89.7081 12.2187 91.1055 12.9333 92.3855 13.872L90.4335 16.752C89.3028 15.8987 88.1401 15.2587 86.9455 14.832C85.7508 14.384 84.5241 14.16 83.2655 14.16C82.3695 14.16 81.5801 14.2987 80.8975 14.576C80.2361 14.8533 79.7135 15.2373 79.3295 15.728C78.9668 16.2187 78.7855 16.7627 78.7855 17.36C78.7855 18.1707 79.0521 18.8 79.5855 19.248C80.1401 19.6747 81.0255 19.9947 82.2415 20.208L86.2415 20.88C88.5028 21.2853 90.1668 21.9893 91.2335 22.992C92.3215 23.9947 92.8655 25.3493 92.8655 27.056C92.8655 28.4213 92.4815 29.6373 91.7135 30.704C90.9668 31.7707 89.9215 32.6027 88.5775 33.2C87.2335 33.7973 85.6655 34.096 83.8735 34.096Z" fill="#979797"/>
<path d="M102.756 34.064C101.134 34.064 99.9077 33.6907 99.0757 32.944C98.2437 32.176 97.8277 31.056 97.8277 29.584V20.592H94.6277V17.712H97.8277V13.296L101.444 12.528V17.712H105.892V20.592H101.444V28.784C101.444 29.5733 101.614 30.1387 101.956 30.48C102.297 30.8 102.873 30.96 103.684 30.96C104.046 30.96 104.377 30.9387 104.676 30.896C104.996 30.832 105.39 30.7253 105.86 30.576V33.616C105.412 33.7653 104.9 33.872 104.324 33.936C103.769 34.0213 103.246 34.064 102.756 34.064Z" fill="#979797"/>
<path d="M114.566 34C113.456 34 112.486 33.7547 111.654 33.264C110.822 32.7733 110.16 32.1013 109.67 31.248C109.2 30.3947 108.966 29.4027 108.966 28.272V17.712H112.614V27.216C112.614 28.4107 112.923 29.36 113.542 30.064C114.182 30.7467 115.046 31.088 116.134 31.088C116.859 31.088 117.51 30.928 118.086 30.608C118.683 30.288 119.195 29.808 119.622 29.168V17.712H123.238V33.744H119.622V31.152C119.003 32.0907 118.267 32.8053 117.414 33.296C116.56 33.7653 115.611 34 114.566 34Z" fill="#979797"/>
<path d="M134.215 33.904C132.871 33.904 131.655 33.5413 130.567 32.816C129.479 32.0693 128.604 31.088 127.943 29.872C127.303 28.6347 126.983 27.2587 126.983 25.744C126.983 24.208 127.313 22.832 127.975 21.616C128.636 20.3787 129.532 19.3973 130.663 18.672C131.815 17.9467 133.084 17.584 134.471 17.584C135.388 17.584 136.241 17.7653 137.031 18.128C137.841 18.4693 138.545 18.9813 139.143 19.664V10.8L142.759 10.16V33.744H139.175V31.632C138.599 32.3573 137.884 32.9227 137.031 33.328C136.177 33.712 135.239 33.904 134.215 33.904ZM135.335 30.864C136.103 30.864 136.817 30.7147 137.479 30.416C138.14 30.096 138.695 29.6587 139.143 29.104V22.352C138.673 21.7973 138.108 21.3707 137.447 21.072C136.785 20.7733 136.081 20.624 135.335 20.624C134.417 20.624 133.596 20.848 132.871 21.296C132.167 21.7227 131.601 22.32 131.175 23.088C130.748 23.856 130.535 24.7413 130.535 25.744C130.535 26.704 130.748 27.5787 131.175 28.368C131.601 29.136 132.167 29.744 132.871 30.192C133.596 30.64 134.417 30.864 135.335 30.864Z" fill="#979797"/>
<path d="M147.218 33.744V17.712H150.834V33.744H147.218ZM149.042 14.448C148.423 14.448 147.89 14.2347 147.442 13.808C147.015 13.36 146.802 12.8373 146.802 12.24C146.802 11.6213 147.015 11.0987 147.442 10.672C147.89 10.224 148.423 10 149.042 10C149.661 10 150.183 10.224 150.61 10.672C151.058 11.0987 151.282 11.6107 151.282 12.208C151.282 12.8267 151.058 13.36 150.61 13.808C150.183 14.2347 149.661 14.448 149.042 14.448Z" fill="#979797"/>
<path d="M162.64 34.032C161.126 34.032 159.75 33.6693 158.512 32.944C157.296 32.2187 156.336 31.2373 155.632 30C154.928 28.7413 154.576 27.3227 154.576 25.744C154.576 24.1653 154.928 22.7573 155.632 21.52C156.336 20.2613 157.296 19.2693 158.512 18.544C159.728 17.8187 161.104 17.456 162.64 17.456C164.176 17.456 165.542 17.8187 166.736 18.544C167.952 19.2693 168.912 20.2613 169.616 21.52C170.32 22.7573 170.672 24.1653 170.672 25.744C170.672 27.3227 170.32 28.7413 169.616 30C168.912 31.2373 167.952 32.2187 166.736 32.944C165.542 33.6693 164.176 34.032 162.64 34.032ZM162.64 30.96C163.515 30.96 164.283 30.736 164.944 30.288C165.627 29.84 166.16 29.2213 166.544 28.432C166.928 27.6213 167.12 26.7253 167.12 25.744C167.12 24.7413 166.928 23.856 166.544 23.088C166.16 22.2987 165.627 21.68 164.944 21.232C164.283 20.7627 163.515 20.528 162.64 20.528C161.766 20.528 160.987 20.7627 160.304 21.232C159.622 21.68 159.088 22.2987 158.704 23.088C158.32 23.856 158.128 24.7413 158.128 25.744C158.128 26.7467 158.32 27.6427 158.704 28.432C159.088 29.2213 159.622 29.84 160.304 30.288C160.987 30.736 161.766 30.96 162.64 30.96Z" fill="#979797"/>
</svg>
